IKResults EF2
version=1
nRows=9
nColumns=24
inDegrees=yes

Units are S.I. units (second, meters, Newtons, ...)
If the header above contains a line with 'inDegrees', this indicates whether rotational values are in degrees (yes) or radians (no).

endheader
time	pelvis_tilt	pelvis_list	pelvis_rotation	pelvis_tx	pelvis_ty	pelvis_tz	hip_flexion_r	hip_adduction_r	hip_rotation_r	knee_angle_r	ankle_angle_r	subtalar_angle_r	mtp_angle_r	hip_flexion_l	hip_adduction_l	hip_rotation_l	knee_angle_l	ankle_angle_l	subtalar_angle_l	mtp_angle_l	lumbar_extension	lumbar_bending	lumbar_rotation
      3.92000000	      2.75838093	     -2.35265257	    -86.80650501	     -0.21813823	      0.96934164	     -3.22641485	     29.40372936	     -3.48811512	     -2.89435823	    -39.74578201	      8.89972384	    -13.77964742	      0.00000000	     -4.91368877	      7.53692210	      6.67831855	    -13.27639088	     16.55965111	    -10.02604203	      0.00000000	    -16.85047497	     -3.10545692	      1.04578072
      3.93000000	      2.85116608	     -2.35105110	    -86.24769721	     -0.21767309	      0.96754029	     -3.21203916	     29.99763445	     -3.74455615	     -2.71265212	    -36.69443105	      8.75977170	    -13.98683698	      0.00000000	     -6.08073010	      7.52856344	      7.43528587	    -12.98381063	     17.19487597	    -10.26545454	      0.00000000	    -16.85178995	     -3.04443680	      0.24338623
      3.94000000	      2.92956640	     -2.30988751	    -85.68601823	     -0.21728732	      0.96545308	     -3.19741811	     30.52633580	     -3.99948404	     -2.48416468	    -33.62084049	      8.49499000	    -14.28137283	      0.00000000	     -7.06297583	      7.42348939	      7.78440803	    -12.98028033	     17.86174174	    -10.07029938	      0.00000000	    -16.76867163	     -2.97958515	     -0.67885667
      3.95000000	      3.00791566	     -2.23609384	    -85.15688836	     -0.21713616	      0.96318769	     -3.18272350	     31.02468650	     -4.23917230	     -2.07420087	    -30.63351075	      8.14997041	    -14.94704615	      0.00000000	     -8.07678204	      7.36564622	      8.70459490	    -12.89069245	     18.52251125	     -9.98217492	      0.00000000	    -16.68911019	     -2.92647097	     -1.40083425
      3.96000000	      3.05465015	     -2.14113057	    -84.57717223	     -0.21689243	      0.96068255	     -3.16803813	     31.48633117	     -4.53335095	     -1.88768183	    -27.66777450	      8.20461998	    -15.01850196	      0.00000000	     -9.00379072	      7.28152804	      9.71112667	    -12.91827259	     19.21287529	    -10.41761179	      0.00000000	    -16.50655615	     -2.79066605	     -2.04422858
      3.97000000	      3.11471564	     -2.02448801	    -84.15429876	     -0.21687217	      0.95802221	     -3.15303813	     31.94006954	     -4.79221469	     -1.62701500	    -24.85613582	      8.47965319	    -15.07934732	      0.00000000	     -9.94690257	      7.19978087	     10.53355136	    -12.90701909	     19.80048610	    -10.82512609	      0.00000000	    -16.33044914	     -2.79168388	     -2.69810640
      3.98000000	      3.07478177	     -1.88804759	    -83.75716024	     -0.21703324	      0.95527766	     -3.13801720	     32.30071690	     -4.92622361	     -1.31980326	    -22.09453814	      8.91477523	    -15.11120126	      0.00000000	    -10.78483466	      6.99493045	     11.09155153	    -13.04881099	     20.29829822	    -11.11893361	      0.00000000	    -16.14494817	     -2.60814258	     -3.23989332
      3.99000000	      3.03603717	     -1.76394793	    -83.39346039	     -0.21723151	      0.95242971	     -3.12286756	     32.65273915	     -5.07721616	     -1.13795653	    -19.62880465	      9.60444480	    -14.87947203	      0.00000000	    -11.58119447	      6.77032061	     11.31682462	    -13.26005058	     20.92075865	    -11.27076533	      0.00000000	    -16.02359069	     -2.55459204	     -3.93102669
      4.00000000	      2.95608714	     -1.62367659	    -83.06976942	     -0.21749176	      0.94954275	     -3.10760656	     33.01195559	     -5.17376620	     -1.03838537	    -17.39796355	     10.34819155	    -14.22900961	      0.00000000	    -12.32451888	      6.47646759	     11.30435846	    -13.51104375	     21.52573500	    -11.01022690	      0.00000000	    -15.81923997	     -2.37697800	     -4.56574134
